<svg width="512" height="411.883" xmlns="http://www.w3.org/2000/svg">

 <g>
  <title>background</title>
  <rect fill="none" id="canvas_background" height="402" width="582" y="-1" x="-1"/>
 </g>
 <g>
  <title>Layer 1</title>
  <path fill="#2a2c30" id="svg_1" d="m512,348.922l-42.184,0l0,-71.603l-38.224,0l0,-48.074l69.617,0l0,-23.542l-137.33,0l0,15.707l-16.646,0l0,-15.707l-148.092,0l0,15.707l-69.96,0l3.634,-31.406l4.503,0l0,-33.307l-10.18,0c3.556,-12.645 11.177,-32.688 24.904,-39.248c20.602,-9.857 19.613,19.621 67.701,-2.976c48.032,-22.538 42.153,-6.883 57.858,0c15.692,6.89 28.396,15.714 61.801,-1.937c33.322,-17.677 32.348,5.9 36.246,5.9c3.936,0 40.23,20.566 54.929,-24.524c14.725,-45.099 -27.478,-66.705 -43.155,-66.705c-15.672,0 -29.387,21.606 -50.004,5.9c-20.609,-15.757 -28.445,-12.789 -58.875,-6.89c-30.397,5.898 -33.344,-2.926 -47.021,-9.8c-13.778,-6.848 -50.052,-34.347 -77.544,1.979c-27.414,36.268 -4.859,46.081 -17.648,53.909c-12.762,7.878 -29.393,23.542 -30.383,34.346c-0.989,10.796 -9.807,26.46 -1.979,47.07c0.443,1.089 0.846,2.028 1.277,2.974l-16.932,0l0,33.307l3.132,0l3.111,31.406l-38.633,0l-30.016,47.086l29.428,48.06l-27.829,0l0,32.367l-27.506,0l0,17.643l24.224,0c-3.484,4.709 -5.586,10.559 -5.586,16.882c0,15.714 12.739,28.438 28.447,28.438c15.705,0 28.467,-12.725 28.467,-28.438c0,-6.323 -2.094,-12.173 -5.592,-16.882l30.259,0c-0.022,0.745 -0.094,1.411 -0.094,2.164c0,23.822 19.292,43.155 43.157,43.155c23.851,0 43.17,-19.333 43.17,-43.155c0,-0.753 -0.1,-1.419 -0.1,-2.164l15.899,0c-0.028,0.745 -0.094,1.411 -0.094,2.164c0,23.822 19.321,43.155 43.158,43.155c23.819,0 43.134,-19.333 43.134,-43.155c0,-0.753 -0.064,-1.419 -0.137,-2.164l15.942,0c-0.049,0.745 -0.094,1.411 -0.094,2.164c0,23.822 19.313,43.155 43.164,43.155c23.821,0 43.104,-19.333 43.104,-43.155c0,-0.753 -0.029,-1.419 -0.043,-2.164l32.037,0c-3.499,4.709 -5.557,10.559 -5.557,16.882c0,15.714 12.697,28.438 28.433,28.438c15.679,0 28.438,-12.725 28.438,-28.438c0,-6.323 -2.101,-12.173 -5.541,-16.882l43.805,0l0,-17.642z"/>
 </g>
</svg>